<?xml version="1.0" standalone="no"?>
<!DOCTYPE svg PUBLIC "-//W3C//DTD SVG 20010904//EN"
 "http://www.w3.org/TR/2001/REC-SVG-20010904/DTD/svg10.dtd">
<svg version="1.0" xmlns="http://www.w3.org/2000/svg"
 width="64.000000pt" height="64.000000pt" viewBox="0 0 64.000000 64.000000"
 preserveAspectRatio="xMidYMid meet">
<metadata>
Created by potrace 1.12, written by Peter Selinger 2001-2015
</metadata>
<g transform="translate(0.000000,64.000000) scale(0.100000,-0.100000)"
fill="#000000" stroke="none">
<path d="M130 330 l0 -130 100 0 c82 0 100 3 100 15 0 12 -16 15 -80 15 l-80
0 0 40 0 40 70 0 c63 0 70 2 70 20 0 18 -7 20 -70 20 l-70 0 0 35 0 35 75 0
c68 0 75 2 75 20 0 19 -7 20 -95 20 l-95 0 0 -130z"/>
<path d="M395 435 c-14 -13 -25 -31 -25 -40 0 -24 29 -18 54 12 21 24 26 26
50 15 43 -19 34 -50 -39 -122 -90 -89 -88 -100 20 -100 69 0 85 3 85 15 0 12
-13 15 -55 15 -30 0 -55 3 -55 6 0 3 25 29 55 58 47 44 55 57 55 88 0 71 -94
105 -145 53z"/>
</g>
</svg>
