<?xml version="1.0" standalone="no"?>
<!DOCTYPE svg PUBLIC "-//W3C//DTD SVG 20010904//EN"
 "http://www.w3.org/TR/2001/REC-SVG-20010904/DTD/svg10.dtd">
<svg version="1.0" xmlns="http://www.w3.org/2000/svg"
 width="64.000000pt" height="64.000000pt" viewBox="0 0 64.000000 64.000000"
 preserveAspectRatio="xMidYMid meet">
<metadata>
Created by potrace 1.12, written by Peter Selinger 2001-2015
</metadata>
<g transform="translate(0.000000,64.000000) scale(0.100000,-0.100000)"
fill="#000000" stroke="none">
<path d="M130 330 l0 -130 100 0 c82 0 100 3 100 15 0 12 -16 15 -80 15 l-80
0 0 40 0 40 70 0 c63 0 70 2 70 20 0 18 -7 20 -70 20 l-70 0 0 35 0 35 75 0
c68 0 75 2 75 20 0 19 -7 20 -95 20 l-95 0 0 -130z"/>
<path d="M395 435 c-28 -28 -31 -43 -10 -51 8 -4 24 5 38 21 20 24 26 26 45
16 37 -20 22 -71 -20 -71 -29 0 -21 -28 8 -32 34 -4 49 -27 40 -61 -10 -43
-68 -47 -81 -6 -8 23 -45 26 -45 4 0 -29 47 -65 83 -65 52 0 87 33 87 80 0 22
-7 45 -16 55 -13 12 -14 19 -5 28 20 20 13 64 -15 86 -36 28 -79 27 -109 -4z"/>
</g>
</svg>
