<?xml version="1.0" standalone="no"?>
<!DOCTYPE svg PUBLIC "-//W3C//DTD SVG 20010904//EN"
 "http://www.w3.org/TR/2001/REC-SVG-20010904/DTD/svg10.dtd">
<svg version="1.0" xmlns="http://www.w3.org/2000/svg"
 width="64.000000pt" height="64.000000pt" viewBox="0 0 64.000000 64.000000"
 preserveAspectRatio="xMidYMid meet">
<metadata>
Created by potrace 1.12, written by Peter Selinger 2001-2015
</metadata>
<g transform="translate(0.000000,64.000000) scale(0.100000,-0.100000)"
fill="#000000" stroke="none">
<path d="M130 330 l0 -130 100 0 c82 0 100 3 100 15 0 12 -16 15 -80 15 l-80
0 0 40 0 40 70 0 c63 0 70 2 70 20 0 18 -7 20 -70 20 l-70 0 0 35 0 35 75 0
c68 0 75 2 75 20 0 19 -7 20 -95 20 l-95 0 0 -130z"/>
<path d="M395 435 c-35 -34 -35 -96 1 -132 25 -25 52 -27 96 -8 16 6 17 4 7
-24 -17 -49 -68 -64 -83 -25 -3 8 -14 14 -25 14 -25 0 -17 -34 12 -55 34 -24
75 -18 108 14 27 27 29 35 29 100 0 81 -12 114 -47 130 -38 18 -72 13 -98 -14z"/>
</g>
</svg>
