<?xml version="1.0" encoding="UTF-8" standalone="no"?>
<!-- Created with Inkscape (http://www.inkscape.org/) -->

<svg
   xmlns:dc="http://purl.org/dc/elements/1.1/"
   xmlns:cc="http://creativecommons.org/ns#"
   xmlns:rdf="http://www.w3.org/1999/02/22-rdf-syntax-ns#"
   xmlns:svg="http://www.w3.org/2000/svg"
   xmlns="http://www.w3.org/2000/svg"
   xmlns:sodipodi="http://sodipodi.sourceforge.net/DTD/sodipodi-0.dtd"
   xmlns:inkscape="http://www.inkscape.org/namespaces/inkscape"
   width="122.85714"
   height="122.85714"
   id="svg2"
   version="1.1"
   inkscape:version="0.91 r13725"
   inkscape:export-filename="/home/laochailan/src/odesk/byb/BYB_SDL_rewrite/data/filehigh.png"
   inkscape:export-xdpi="46.88372"
   inkscape:export-ydpi="46.88372"
   sodipodi:docname="ekg.svg">
  <defs
     id="defs4" />
  <sodipodi:namedview
     id="base"
     pagecolor="#898989"
     bordercolor="#666666"
     borderopacity="1.0"
     inkscape:pageopacity="0"
     inkscape:pageshadow="2"
     inkscape:zoom="1.979899"
     inkscape:cx="23.271774"
     inkscape:cy="37.985255"
     inkscape:document-units="px"
     inkscape:current-layer="layer1"
     showgrid="false"
     fit-margin-top="0"
     fit-margin-left="0"
     fit-margin-right="0"
     fit-margin-bottom="0"
     inkscape:window-width="1920"
     inkscape:window-height="1043"
     inkscape:window-x="0"
     inkscape:window-y="18"
     inkscape:window-maximized="0">
    <inkscape:grid
       type="xygrid"
       id="grid3022" />
  </sodipodi:namedview>
  <metadata
     id="metadata7">
    <rdf:RDF>
      <cc:Work
         rdf:about="">
        <dc:format>image/svg+xml</dc:format>
        <dc:type
           rdf:resource="http://purl.org/dc/dcmitype/StillImage" />
        <dc:title></dc:title>
      </cc:Work>
    </rdf:RDF>
  </metadata>
  <g
     inkscape:label="Ebene 1"
     inkscape:groupmode="layer"
     id="layer1"
     transform="translate(-129.68311,-209.66348)">
    <path
       sodipodi:type="arc"
       style="fill:#ffffff;fill-opacity:1;fill-rule:nonzero;stroke:none"
       id="path3753"
       sodipodi:cx="180"
       sodipodi:cy="276.64789"
       sodipodi:rx="61.42857"
       sodipodi:ry="61.42857"
       d="M 241.42857,276.64789 A 61.42857,61.42857 0 0 1 180,338.07646 61.42857,61.42857 0 0 1 118.57143,276.64789 61.42857,61.42857 0 0 1 180,215.21932 a 61.42857,61.42857 0 0 1 61.42857,61.42857 z"
       transform="translate(12.121831,-5.0507631)" />
    <path
       style="opacity:1;fill:#4d4d4d;fill-opacity:1;fill-rule:nonzero;stroke:none;stroke-width:3.99999976;stroke-linecap:round;stroke-linejoin:miter;stroke-miterlimit:4;stroke-dasharray:none;stroke-dashoffset:0;stroke-opacity:1"
       d="m 169.424,245.34262 c -9.44694,-0.26118 -13.94022,8.23761 -15.47416,16.6997 -0.45322,2.02076 -0.66821,4.03085 -0.62205,5.93647 -0.0315,1.13724 -0.0235,2.2419 0.0421,3.26553 0.94909,14.78409 19.05583,26.88139 37.59412,41.19915 0.0481,-0.0394 0.0994,-0.0784 0.14761,-0.11764 0.0482,0.0394 0.0995,0.0783 0.14761,0.11764 18.5383,-14.31776 36.64503,-26.41506 37.59412,-41.19915 0.0657,-1.02362 0.0738,-2.12829 0.0421,-3.26553 0.0462,-1.9056 -0.16883,-3.91572 -0.62205,-5.93647 -1.53393,-8.46209 -6.02722,-16.96088 -15.47415,-16.6997 -0.1819,0.005 -0.3607,0.024 -0.54123,0.035 -0.33834,-0.0215 -0.67891,-0.0375 -1.02622,-0.035 -8.28824,0.0598 -14.22223,6.655 -17.32978,11.14162 -1.42762,1.68933 -2.38054,3.00167 -2.79048,3.61212 -0.41076,-0.61178 -1.36781,-1.92955 -2.80453,-3.62803 -3.1109,-4.48638 -9.03796,-11.06594 -17.31572,-11.12571 -0.3473,-0.002 -0.68787,0.0135 -1.02622,0.035 -0.18053,-0.0115 -0.35932,-0.03 -0.54123,-0.035 z"
       id="path3368"
       inkscape:connector-curvature="0" />
  </g>
</svg>
