<?xml version="1.0" standalone="no"?>
<!DOCTYPE svg PUBLIC "-//W3C//DTD SVG 20010904//EN"
 "http://www.w3.org/TR/2001/REC-SVG-20010904/DTD/svg10.dtd">
<svg version="1.0" xmlns="http://www.w3.org/2000/svg"
 width="64.000000pt" height="64.000000pt" viewBox="0 0 64.000000 64.000000"
 preserveAspectRatio="xMidYMid meet">
<metadata>
Created by potrace 1.12, written by Peter Selinger 2001-2015
</metadata>
<g transform="translate(0.000000,64.000000) scale(0.100000,-0.100000)"
fill="#000000" stroke="none">
<path d="M375 421 c-3 -6 -22 -11 -41 -11 -29 0 -44 -8 -80 -45 -48 -49 -71
-55 -99 -25 -24 26 -50 25 -69 -2 -32 -45 35 -91 71 -49 13 16 29 21 69 21 47
0 54 -3 96 -45 35 -34 54 -45 77 -45 17 0 31 -4 31 -10 0 -5 11 -10 24 -10 17
0 25 7 28 25 5 22 2 25 -23 25 -16 0 -29 -4 -29 -10 0 -23 -53 -8 -85 24 -19
18 -35 36 -35 40 0 12 218 7 222 -5 3 -9 10 -9 27 0 l23 13 -23 16 c-16 11
-24 12 -27 4 -3 -9 -45 -12 -148 -12 -79 0 -144 2 -144 4 0 2 12 18 27 35 22
24 36 31 65 31 20 0 39 -4 43 -10 10 -16 36 2 33 23 -3 23 -23 33 -33 18z"/>
</g>
</svg>
