<?xml version="1.0" standalone="no"?>
<!DOCTYPE svg PUBLIC "-//W3C//DTD SVG 20010904//EN"
 "http://www.w3.org/TR/2001/REC-SVG-20010904/DTD/svg10.dtd">
<svg version="1.0" xmlns="http://www.w3.org/2000/svg"
 width="64.000000pt" height="64.000000pt" viewBox="0 0 64.000000 64.000000"
 preserveAspectRatio="xMidYMid meet">
<metadata>
Created by potrace 1.12, written by Peter Selinger 2001-2015
</metadata>
<g transform="translate(0.000000,64.000000) scale(0.100000,-0.100000)"
fill="#000000" stroke="none">
<path d="M361 532 c-52 -26 -76 -65 -76 -123 0 -48 -1 -49 -97 -146 -54 -54
-98 -103 -98 -108 0 -13 52 -65 65 -65 6 0 55 45 110 100 89 90 103 100 127
94 64 -14 141 41 154 111 10 57 -4 61 -51 15 l-42 -41 -42 42 -42 42 41 42
c22 23 37 44 34 48 -12 12 -48 8 -83 -11z"/>
</g>
</svg>
