<?xml version="1.0" standalone="no"?>
<!DOCTYPE svg PUBLIC "-//W3C//DTD SVG 20010904//EN"
 "http://www.w3.org/TR/2001/REC-SVG-20010904/DTD/svg10.dtd">
<svg version="1.0" xmlns="http://www.w3.org/2000/svg"
 width="64.000000pt" height="64.000000pt" viewBox="0 0 64.000000 64.000000"
 preserveAspectRatio="xMidYMid meet">
<metadata>
Created by potrace 1.12, written by Peter Selinger 2001-2015
</metadata>
<g transform="translate(0.000000,64.000000) scale(0.100000,-0.100000)"
fill="#000000" stroke="none">
<path d="M130 330 l0 -130 100 0 c82 0 100 3 100 15 0 12 -16 15 -80 15 l-80
0 0 40 0 40 70 0 c63 0 70 2 70 20 0 18 -7 20 -70 20 l-70 0 0 35 0 35 75 0
c68 0 75 2 75 20 0 19 -7 20 -95 20 l-95 0 0 -130z"/>
<path d="M418 376 c-32 -47 -58 -91 -58 -100 0 -11 13 -16 53 -18 48 -3 52 -5
55 -30 2 -20 9 -28 23 -28 14 0 19 7 19 30 0 20 5 30 15 30 8 0 15 7 15 15 0
8 -7 15 -15 15 -12 0 -15 16 -15 85 0 113 -15 113 -92 1z"/>
</g>
</svg>
