<?xml version="1.0" standalone="no"?>
<!DOCTYPE svg PUBLIC "-//W3C//DTD SVG 20010904//EN"
 "http://www.w3.org/TR/2001/REC-SVG-20010904/DTD/svg10.dtd">
<svg version="1.0" xmlns="http://www.w3.org/2000/svg"
 width="64.000000pt" height="64.000000pt" viewBox="0 0 64.000000 64.000000"
 preserveAspectRatio="xMidYMid meet">
<metadata>
Created by potrace 1.12, written by Peter Selinger 2001-2015
</metadata>
<g transform="translate(0.000000,64.000000) scale(0.100000,-0.100000)"
fill="#000000" stroke="none">
<path d="M130 330 l0 -130 100 0 c82 0 100 3 100 15 0 12 -16 15 -80 15 l-80
0 0 40 0 40 70 0 c63 0 70 2 70 20 0 18 -7 20 -70 20 l-70 0 0 35 0 35 75 0
c68 0 75 2 75 20 0 19 -7 20 -95 20 l-95 0 0 -130z"/>
<path d="M417 449 c-30 -18 -47 -65 -47 -134 0 -60 3 -69 29 -96 59 -58 141
-23 141 61 0 68 -57 109 -111 80 -16 -9 -19 -7 -19 8 0 45 50 72 80 42 21 -21
50 -27 50 -10 0 6 -11 22 -25 35 -25 26 -67 32 -98 14z"/>
</g>
</svg>
