<?xml version="1.0" standalone="no"?>
<!DOCTYPE svg PUBLIC "-//W3C//DTD SVG 20010904//EN"
 "http://www.w3.org/TR/2001/REC-SVG-20010904/DTD/svg10.dtd">
<svg version="1.0" xmlns="http://www.w3.org/2000/svg"
 width="64.000000pt" height="64.000000pt" viewBox="0 0 64.000000 64.000000"
 preserveAspectRatio="xMidYMid meet">
<metadata>
Created by potrace 1.12, written by Peter Selinger 2001-2015
</metadata>
<g transform="translate(0.000000,64.000000) scale(0.100000,-0.100000)"
fill="#000000" stroke="none">
<path d="M310 449 c0 -46 -5 -68 -21 -91 -18 -24 -19 -32 -8 -39 8 -5 16 -3
21 4 4 7 8 -23 8 -65 l0 -78 -90 0 c-73 0 -90 -3 -90 -15 0 -12 18 -15 105
-15 l105 0 0 90 c0 75 2 88 15 84 9 -4 15 0 15 9 0 8 -7 20 -15 27 -10 8 -15
31 -15 66 l0 54 80 0 c64 0 80 3 80 15 0 12 -17 15 -95 15 l-95 0 0 -61z"/>
</g>
</svg>
